<?xml version="1.0"?>
<svg width="175" height="245" xmlns="http://www.w3.org/2000/svg" xmlns:svg="http://www.w3.org/2000/svg" xmlns:xlink="http://www.w3.org/1999/xlink">
 <defs>
  <clipPath id="aw">
   <path d="m-210.167282,-1912.308455c-8.9253,26.522 30.744,111.89 133.98,137.35c25.456,-1.4142 46.909,-25.407 51.152,-38.135c26.554,-1.4142 34.394,57 24.495,69.728c-15.556,35.355 -36.036,58.888 -76.127,60.276c-26.29,0.91018 -183.1,-18.358 -217.04,-169.68c-8.4853,-49.497 65.155,-72.267 83.54,-59.539z" fill-rule="evenodd" id="svg_1"/>
  </clipPath>
  <filter id="av">
   <feGaussianBlur stdDeviation="0.8581"/>
  </filter>
  <filter id="c">
   <feGaussianBlur stdDeviation="0.9771"/>
  </filter>
  <filter id="ar">
   <feGaussianBlur stdDeviation="3.396"/>
  </filter>
  <filter id="aq">
   <feGaussianBlur stdDeviation="0.9052"/>
  </filter>
  <filter id="b">
   <feGaussianBlur stdDeviation="2.354"/>
  </filter>
  <filter height="1.0586" id="at" width="1.2034" x="-0.10172" y="-0.0293">
   <feGaussianBlur stdDeviation="0.9771"/>
  </filter>
  <filter height="1.0601" id="au" width="1.2015" x="-0.10076" y="-0.03004">
   <feGaussianBlur stdDeviation="0.9771"/>
  </filter>
  <filter height="1.152" id="as" width="1.2039" x="-0.10196" y="-0.07601">
   <feGaussianBlur stdDeviation="5.1356"/>
  </filter>
  <linearGradient id="a">
   <stop offset="0" stop-color="#a00"/>
   <stop offset="1" stop-color="#800000"/>
  </linearGradient>
  <linearGradient id="z" x1="0.117489" x2="0.878177" xlink:href="#a" y1="0.321691" y2="0.890004"/>
  <linearGradient id="y" x1="0.559379" x2="0.05377" xlink:href="#a" y1="0.157367" y2="0.737769"/>
  <linearGradient id="x" x1="0.475268" x2="-0.003392" xlink:href="#a" y1="0.242663" y2="0.820301"/>
  <linearGradient id="w" x1="0.533598" x2="-0.01947" xlink:href="#a" y1="0.200973" y2="0.854573"/>
  <linearGradient id="v" x1="45.141116" x2="24.413483" xlink:href="#a" y1="-35.398963" y2="0.528833"/>
  <linearGradient id="u" x1="-3.247164" x2="-3.247164" xlink:href="#a" y1="0.308345" y2="0.942139"/>
  <linearGradient id="t" x1="0.489089" x2="0.302963" xlink:href="#a" y1="0.302173" y2="0.846653"/>
  <linearGradient id="s" x1="0.414308" x2="0.319878" xlink:href="#a" y1="0.29899" y2="0.90516"/>
  <linearGradient id="r" x1="0.340127" x2="0.178849" xlink:href="#a" y1="0.333988" y2="0.731545"/>
  <linearGradient id="q" x1="0.467161" x2="0.328134" xlink:href="#a" y1="0.322134" y2="0.838622"/>
  <linearGradient id="p" x1="0.355002" x2="0.561076" xlink:href="#a" y1="0.249183" y2="0.861091"/>
  <linearGradient id="o" x1="0.775686" x2="0.108091" xlink:href="#a" y1="0.121418" y2="0.488103"/>
  <linearGradient id="n" x1="0.822397" x2="0.269701" xlink:href="#a" y1="0.243125" y2="0.842537"/>
  <linearGradient id="m" x1="0.79541" x2="0.245377" xlink:href="#a" y1="0.236518" y2="0.828296"/>
  <linearGradient id="l" x1="0.915695" x2="0.296895" xlink:href="#a" y1="0.324254" y2="0.840602"/>
  <linearGradient id="k" x1="0.822397" x2="0.269808" xlink:href="#a" y1="0.234272" y2="0.840693"/>
  <linearGradient id="j" x1="0.736905" x2="0.281487" xlink:href="#a" y1="0.198396" y2="0.84022"/>
  <linearGradient id="i" x1="0.758678" x2="0.279826" xlink:href="#a" y1="0.216652" y2="0.716749"/>
  <linearGradient id="h" x1="0.792326" x2="0.301442" xlink:href="#a" y1="0.247509" y2="0.745626"/>
  <linearGradient id="g" x1="0.789022" x2="0.281589" xlink:href="#a" y1="0.23847" y2="0.74245"/>
  <linearGradient id="f" x1="0.739847" x2="0.233799" xlink:href="#a" y1="0.118357" y2="0.701887"/>
  <linearGradient id="e" x1="0.327884" x2="0.500087" xlink:href="#a" y1="0.166038" y2="0.834468"/>
  <radialGradient cx="386.8" cy="394.75" gradientTransform="matrix(1 0 0 1.6376 0 -251.02)" gradientUnits="userSpaceOnUse" id="d" r="34.902">
   <stop offset="0" stop-color="#f6ebeb" stop-opacity="0.6771"/>
   <stop offset="1" stop-color="#f4eded" stop-opacity="0"/>
  </radialGradient>
 </defs>
 <g class="layer">
  <title>Layer 1</title>
  <path d="m411.252243,332.573061a33.208,33.208 0 1 1 -66.417,0a33.208,33.208 0 1 1 66.417,0z" fill="url(#d)" id="svg_2" opacity="0.6637"/>
  <g id="svg_3">
   <path d="m16.526456,238.2415l8.2011,-11.41c1.9701,-2.357 3.4926,-4.714 6.566,-7.0711l7.0711,-3.4462c2.1887,0.13819 4.1095,-0.68031 6.2981,-0.11992l5.3186,0.53571l10.102,5.0508c5.1117,3.8309 10.286,7.867 16.578,10.517l12.211,6.6553l9.5964,4.0406c2.5051,0.51099 5.0087,1.0226 8.6756,1.0688c3.7855,0.58034 7.8055,0.80899 12.538,-0.0306l7.9613,-1.3367c3.9904,-0.86375 6.3006,-2.7356 9.2113,-4.2472c2.8415,-1.852 4.4922,-4.061 7.0991,-5.913c3.8857,-3.4045 7.4587,-6.9967 10.16,-11.112c3.6169,-4.5169 6.5581,-9.3397 9.0914,-14.29c2.9885,-5.8926 4.0971,-11.785 5.765,-17.678c2.348,-7.5582 2.4696,-15.966 3.7447,-23.739c1.0903,-6.2293 0.67431,-12.459 0.47448,-18.688c-0.46414,-10.042 -0.6205,-19.398 -1.5432,-30.305c-1.6836,-14.479 -3.4989,-28.643 -5.4972,-43.437c-0.62921,-9.7648 -3.0926,-19.53 -5.0508,-29.294c-0.9389,-4.4641 -1.9345,-8.9395 -4.0406,-13.637c-2.8598,-6.3976 -6.0565,-12.795 -10.102,-19.193c-3.9169,-5.0126 -6.9323,-6.5888 -12.122,-9.0914c-4.8672,-1.0406 -9.6031,-2.3438 -15.152,-2.0203c-4.3773,0.0125 -8.7546,0.82059 -13.132,2.0203c-0.49524,-0.37143 -9.2409,2.6624 -14.142,6.0609s-9.1823,8.5863 -9.0914,8.5863c-2.1202,3.5292 -4.1042,7.113 -5.0508,11.112l-2.0203,10.102s-2.0876,11.414 -2.5254,20.203c-0.36889,7.4056 2.3453,22.343 2.5254,22.223c0.9053,6.4612 1.9133,11.87 3.5355,16.668l8.5863,17.678l11.617,22.223l7.5762,16.668c1.1104,4.209 2.7466,8.4179 3.5355,12.627c0.38365,2.7682 1.3568,4.3575 0.50508,9.5964l-2.0203,6.566c-0.84179,2.9435 -1.6836,5.4014 -2.5254,9.5964c-1.4416,1.8354 -3.1458,5.0474 -8.5863,7.5762c-2.331,0.62168 -4.1516,1.5497 -7.5762,1.5152l-4.7982,-1.0102l-5.8084,-3.5355l-10.102,-5.8084c-4.6448,-2.6874 -8.392,-5.1303 -12.211,-6.6093c-3.109,-1.9479 -6.9765,-1.5926 -10.517,-2.2295c-3.8481,0.0796 -7.2326,-0.002 -12.18,0.92349l-8.2904,3.385l-6.9818,4.487l-6.8032,7.3083l-5.1401,5.6145c-1.2643,2.5116 -2.8635,3.4754 -4.2192,6.5047c-1.4318,2.5771 -2.7899,4.6558 -3.7989,6.3874c-0.30738,4.5306 1.0532,8.8837 4.0406,13.65c2.2241,2.8874 4.4483,4.4444 6.6724,5.9464c2.0542,1.2402 3.9523,1.8558 5.7714,2.1555l-0.00046,0.00012z" fill="#feb334" id="svg_4" stroke="#803300" stroke-width="1.5"/>
   <path d="m12.456456,237.0415l4.1921,-10.215l2.0203,-4.2931l3.283,-4.7982l3.5406,-3.158c1.1854,-1.4104 3.0219,-2.4923 4.5406,-2.9029l5.3033,-1.7678l4.7982,-0.50508c3.2385,-0.90513 6.9762,-0.23942 10.859,0.75762c2.2943,1.5598 4.585,2.5844 7.5761,4.5457l6.8185,3.5355l7.5685,5.0508l6.5736,3.5355l7.0711,2.7779l8.3338,2.2728l8.5863,1.0102l11.869,-0.25254l8.5863,-2.0203l7.8287,-3.0305l8.5863,-5.8084l7.5761,-6.3134l4.7982,-6.3135l3.283,-4.7982l3.5355,-7.8287l4.5457,-10.859l2.2728,-7.5762l2.5254,-7.8287l1.0102,-5.3033l1.0102,-6.8185l1.2627,-5.0508l0.23722,7.5915c-0.33672,5.5612 -0.40557,10.556 -0.74229,15.895l-1.5152,8.0812l-3.5355,12.879l-3.283,9.3439l-6.3135,10.354s-4.0406,5.5558 -4.5457,6.566s-6.566,7.5761 -6.566,7.5761l-5.0508,4.0406l-7.9281,5.1886c-3.417,1.8336 -7.8255,2.2243 -11.517,3.1452l-6.3135,0.25254l-7.5761,0.25254l-6.8185,-1.0102c-3.3385,-0.0252 -6.9373,-1.3516 -10.607,-3.0304l-6.8185,-4.0406l-7.1961,-3.7957c-2.0666,-0.97777 -3.7538,-2.031 -8.2138,-5.0584l-6.5609,-4.783l-5.8084,-3.5355l-6.8185,-2.2728l-7.0711,-0.75762l-5.8084,1.5152l-2.5254,1.5152l-2.8978,2.3315l-3.6682,3.982l-3.283,4.2931l-3.7881,4.0406l-3.3272,4.4674c-1.2762,-0.13561 -2.388,-0.47274 -3.8954,-1.0707l0.00067,-0.00016z" fill="#da8705" id="svg_5"/>
   <path d="m97.896456,199.7915l-3.5355,0.75508c-1.7673,0.83982 -3.1324,0.57084 -4.6732,0.50507l-2.9029,-0.88769l-7.5761,-4.2931l-8.3338,-5.0508l-6.0609,-3.283l-8.7189,-4.4156l-6.9511,-1.3648l-7.1631,0.22453c-2.8108,0.27467 -3.8054,0.15566 -6.8363,0.90809c-2.7334,0.66701 -4.6765,1.7225 -6.6961,2.6274c-1.7016,0.99218 -3.9903,1.4865 -5.2446,2.9259c-3.9646,1.9361 -4.941,4.2294 -7.6348,6.1655l-1.2627,2.0152l7.5761,-4.0355l7.5762,-2.7779l8.3338,-2.2728c1.5152,-0.29796 3.0305,-0.41238 4.5457,0l5.3033,1.7678l7.3236,3.0305l6.0609,3.0305c2.787,1.4124 4.6124,3.0171 6.8185,4.5457c3.0242,1.7615 5.2338,2.7084 7.5762,3.7881l5.0508,1.5152l7.0711,1.0102c3.1706,0.24457 5.865,-0.59835 6.8185,-1.2627c1.6667,-0.75762 2.2774,-1.5152 3.0304,-2.2728l0.5049,-2.89808z" fill="#fed357" id="svg_6"/>
   <path d="m140.896456,102.2015c-0.88214,2.236 -2.6466,3.7192 -2.9042,7.8287c-1.0048,3.3144 -0.68051,5.2333 -2.9042,10.985c-1.6075,3.9396 -1.4294,8.1025 -5.4296,11.743c-1.9388,1.1983 -4.389,1.8457 -8.5863,-0.50508l-4.1669,-5.0508c-2.2728,-4.0406 -0.96238,-0.15699 -6.4397,-10.607c-1.6945,-4.1159 -4.5805,-8.42 -7.4499,-10.48l-6.566,-4.5457l6.566,4.5457c3.1824,1.12 6.3876,2.2628 8.5863,2.3991c5.1927,0.73644 9.8331,0.73642 14.016,0.12627c7.447,-0.80135 12.546,-2.9446 15.279,-6.4397l-0.0005,0.00051z" fill="#fcfdff" id="svg_7" stroke="#814c00"/>
   <path d="m139.996456,103.0615l5.7268,-4.2338" fill="none" id="svg_8" stroke="#814c00"/>
   <path d="m110.126456,154.4515c28.118,14.848 45.457,7.8486 61.285,-2.2135" fill="none" id="svg_9" stroke="#814c00"/>
   <path d="m109.876456,182.0015c11.993,13.086 25.532,17.742 50.3,13.318" fill="none" id="svg_10" stroke="#814c00"/>
   <path d="m102.236456,197.3915c-3.6088,12.264 10.861,34.033 17.849,34.405" fill="none" id="svg_11" stroke="#814c00"/>
   <path d="m76.096456,204.4615c-4.1076,6.2489 -3.3453,13.848 -2.9858,18.873" fill="none" id="svg_12" stroke="#814c00"/>
   <path d="m48.346456,190.1215c-4.8765,4.9674 -3.7528,13.337 -3.2383,18.621" fill="none" id="svg_13" stroke="#814c00"/>
   <path d="m21.706456,193.1515c-3.3216,6.2489 4.0157,18.646 5.7268,19.884" fill="none" id="svg_14" stroke="#814c00"/>
   <path d="m97.321229,70.068683a5.089385,7.76787 0 1 1 -10.17838,0a5.089385,7.76787 0 1 1 10.17838,0z" id="svg_15"/>
   <path d="m149.981225,70.808673a5.089385,7.76787 0 1 1 -10.17838,0a5.089385,7.76787 0 1 1 10.17838,0z" id="svg_16"/>
   <path d="m87.496456,16.5815c10.79,-1.2151 22.396,-3.6539 32.321,-3.5714c11.089,-0.21454 20.423,3.0826 29.643,6.6071c-4.5329,-5.2946 -7.2424,-11.197 -15.714,-15.179c-5.5131,-2.2889 -14.577,-2.2752 -24.107,-1.4286c-8.9387,2.0314 -15.525,7.8268 -22.143,13.571l0,0.0009z" fill="#fed357" id="svg_17"/>
   <path d="m61.556456,53.5515l0,34.094l39.5,0c2.4879,-6.4836 9.0948,-11.125 16.844,-11.125s14.325,4.6413 16.812,11.125l39.687,0l0,-34.094c-37.615,-5.1319 -75.229,-5.1339 -112.84,0l-0.003,0zm78.438,6.0312l25.094,0c2.3264,0 4.1875,1.4846 4.1875,3.3125l0,13.969c0,1.8279 -1.8611,3.2812 -4.1875,3.2812l-25.094,0c-2.3264,0 -4.1875,-1.4534 -4.1875,-3.2812l0,-13.969c0,-1.8279 1.8611,-3.3125 4.1875,-3.3125zm-68.656,0.28125l25.094,0c2.3264,0 4.1875,1.4534 4.1875,3.2812l0,13.969c0,1.8279 -1.8611,3.3125 -4.1875,3.3125l-25.094,0c-2.3264,0 -4.1875,-1.4846 -4.1875,-3.3125l0,-13.969c0,-1.8279 1.8611,-3.2812 4.1875,-3.2812z" fill="#e6e6e6" id="svg_18" stroke="#000" stroke-width="0.63397"/>
   <path d="m140.006456,59.5915l25.084,0a4.1993,3.2994 0 0 1 4.1993,3.2994l0,13.959a4.1993,3.2994 0 0 1 -4.1993,3.2994l-25.084,0a4.1993,3.2994 0 0 1 -4.1993,-3.2994l0,-13.959a4.1993,3.2994 0 0 1 4.1993,-3.2994" fill="#f00" id="svg_19" opacity="0.6827"/>
   <path d="m71.346456,59.8515l25.084,0a4.1993,3.2994 0 0 1 4.1993,3.2994l0,13.959a4.1993,3.2994 0 0 1 -4.1993,3.2994l-25.084,0a4.1993,3.2994 0 0 1 -4.1993,-3.2994l0,-13.959a4.1993,3.2994 0 0 1 4.1993,-3.2994" fill="#0cff00" id="svg_20" opacity="0.6827"/>
   <path d="m61.466456,53.1815l1.2127,-1.665l1.2039,-1.6464c0.40026,-0.54566 0.79969,-1.0882 1.199,-1.6275s0.79836,-1.0754 1.1979,-1.6083l1.2008,-1.5888c0.4012,-0.52631 0.80353,-1.0493 1.2076,-1.569s0.81002,-1.036 1.2184,-1.5489l1.233,-1.5285c0.41385,-0.50607 0.8308,-1.0087 1.2515,-1.5078s0.8451,-0.99473 1.2739,-1.4868s0.862,-0.9806 1.3002,-1.4655s1.3676,-1.0635 1.8166,-1.5412c-0.16444,6.2069 -2.255,12.499 -2.4938,17.352l-12.8217,1.4317z" fill="#e6e6e6" id="svg_21" stroke="#000" stroke-width="0.33277"/>
   <path d="m174.266456,53.2115l-1.6937,-1.2475l-1.8881,-1.3933l-1.8881,-1.3933l-1.8881,-1.3933l-1.8881,-1.3933l-1.8881,-1.3933l-2.0339,-1.2475l0.74055,3.8839l0.77775,3.4999l0.14583,0.92357l4.9581,0.72914l3.0624,0.34027l2.5763,0.24304l0.90717,-0.15832z" fill="#e6e6e6" id="svg_22" stroke="#000" stroke-width="0.33277"/>
   <g clip-path="url(#aw)" fill-rule="evenodd" id="svg_23" transform="matrix(0.850796 -0.065324 0.0863673 0.6435 463.814 1301.94)">
    <path d="m-51.227846,-1505.223472c-1.3136,5.6922 0.57522,69.62 67.218,102.17c74.632,36.454 118.51,9.3453 125.88,-8.0317c0.43786,-1.7514 1.2696,-15.144 1.2696,-15.144s5.2983,5.9486 3.109,19.084c-1.3448,8.0686 -6.4616,28.536 -48.164,32.402c-41.857,3.8799 -90.637,-12.26 -120.85,-42.034c-33.758,-33.269 -44.662,-71.809 -27.147,-95.891l-1.3136,7.4436l-0.002,0.0011z" fill="#2a61ad" filter="url(#av)" id="svg_24"/>
    <path d="m-40.457846,-1535.043472c-8.9253,26.522 30.744,111.89 133.98,137.35c25.456,-1.4142 46.909,-25.407 51.152,-38.135c26.554,-1.4142 34.394,57 24.495,69.728c-15.556,35.355 -36.036,58.888 -76.127,60.276c-26.29,0.91018 -183.1,-18.358 -217.04,-169.68c-8.4853,-49.497 65.155,-72.267 83.54,-59.539z" fill="url(#z)" id="svg_25"/>
    <path d="m-38.357846,-1510.773472c-33.276,4.7452 -71.768,35.555 -72.985,74.551c-5.6795,-6.2443 8.25,15.938 8.25,15.938c-1.372,-19.609 21.325,-70.094 68.987,-77.085c-0.74581,-3.804 -4.6894,-6.9778 -4.2525,-13.403l0.0005,-0.001z" fill="url(#y)" filter="url(#c)" id="svg_26"/>
    <path d="m-30.127846,-1489.323472c-45.957,9.7904 -67.844,53.251 -60.69,90.225c-5.6795,-6.2443 10.438,12.469 10.438,12.469c-3.1195,-21.357 0.53488,-74.055 55.69,-91.35c-2.1648,-4.9486 -3.2531,-7.5398 -5.4375,-11.344l-0.0005,0z" fill="url(#x)" filter="url(#c)" id="svg_27"/>
    <path d="m-18.617846,-1469.573472c-30.944,15.595 -63.116,42.152 -46.543,98.971c2.6848,2.2186 10.688,9.75 10.688,9.75s-24.954,-62.873 42.136,-100c-1.8555,-2.7834 -3.6358,-6.2415 -6.2811,-8.7188l0.0001,-0.0022z" fill="url(#w)" filter="url(#c)" id="svg_28"/>
    <path d="m-65.157846,-1370.602222c-1.10028,-0.90921 -1.36971,-1.03389 0.28125,0.78125c-0.0939,-0.26473 -0.18959,-0.51739 -0.28125,-0.78125z" fill="url(#v)" id="svg_29"/>
    <path d="m-5.847846,-1454.193472c-26.588,8.9672 -57.222,52.041 -38.07,100.24c-6.1862,-2.1655 11.75,8.9375 11.75,8.9375c-3.0931,-2.4745 -21.931,-71.991 33.696,-101.34c-1.0337,-2.5958 -7.3751,-7.5348 -7.3751,-7.8437l-0.0009,0.0062z" fill="url(#u)" filter="url(#c)" id="svg_30"/>
    <path d="m10.322154,-1439.233472c-24.732,9.5858 -51.553,60.411 -30.856,100.88c0.00001,0.30893 14.812,8.0312 14.812,8.0312s-21.3,-63.672 23.199,-103.22c-3.5922,-2.3293 -7.1564,-5.3785 -7.1564,-5.6874l0.0014,-0.0038z" fill="url(#t)" filter="url(#c)" id="svg_31"/>
    <path d="m27.902154,-1425.653472c-20.151,7.9767 -42.463,60.089 -24.15,99.43c0.00001,0.30031 15.594,6.5625 15.594,6.5625s-22.556,-54.239 16.897,-101.25c-3.1702,-1.8574 -5.5568,-4.1339 -8.3406,-4.7435l-0.0004,0.001z" fill="url(#s)" filter="url(#c)" id="svg_32"/>
    <path d="m44.122154,-1416.393472c-11.954,10.915 -32.435,60.076 -14.122,99.417c0,0.30032 15.281,4.7188 15.281,4.7188s-15.876,-65.329 9.9715,-98.724c-4.0451,-2.5135 -7.7283,-4.493 -11.131,-5.412l0.0005,0.0002z" fill="url(#r)" filter="url(#c)" id="svg_33"/>
    <path d="m63.792154,-1407.183472c-7.4752,9.8252 -18.574,65.08 -8.2928,96.08c1.5446,1.536 17.75,4.4062 17.75,4.4062s-10.704,-58.204 0.31564,-97.159c-4.9199,-1.2012 -7.3757,-2.6401 -9.7728,-3.327l-0.00004,-0.0002z" fill="url(#q)" filter="url(#at)" id="svg_34"/>
    <path d="m35.439017,-1398.023472c-5.3128,11.37 -1.8316,71.516 8.7584,91.703c1.5446,1.536 15.281,-0.21875 15.281,-0.21875s-8.2766,-63.399 -9.1525,-91.221c-5.2899,-2.4337 -9.1431,1.5009 -14.887,-0.26375l0.0001,0.0005z" fill="url(#p)" filter="url(#au)" id="svg_35" transform="matrix(0.8349 0 0 1 52.712 0)"/>
    <path d="m-42.617846,-1528.083472c-39.415,-5.8133 -79.683,13.382 -80.393,53.414c0.43688,-0.12796 5.1858,19.444 5.1858,19.444c6.067,-30.093 26.087,-56.286 76.81,-60.236c-1.1093,-6.8586 -0.31135,-10.275 -1.6027,-12.622l-0.0001,0z" fill="url(#o)" filter="url(#c)" id="svg_36"/>
    <path d="m-48.447846,-1527.833472c-16.064,10.503 -20.902,56.78 -2.4714,88.352c18.773,32.157 45.171,51.177 95.766,73.523c-53.752,-12.975 -90.777,-36.933 -108.12,-70.434c-21.924,-42.343 -11.739,-84.645 1.8535,-91.441c-1.2357,-0.00001 12.357,-0.61785 12.975,-0.00001l-0.0031,0.00001z" fill="#810000" filter="url(#as)" id="svg_37"/>
    <path d="m-94.577846,-1458.993472c6.1784,16.682 20.748,43.033 46.956,65.491c29.314,25.119 77.23,46.956 114.3,53.752c-32.746,2.4714 -83.388,-14.279 -119.24,-47.574c-25.959,-24.105 -36.453,-45.103 -42.013,-71.67l-0.003,0.001z" fill="#8f0000" filter="url(#ar)" id="svg_38"/>
    <path d="m25.282154,-1329.863472c19.771,8.032 105.65,28.421 135.93,-33.981c-10.503,11.121 -37.071,49.427 -135.93,33.981z" fill="#800000" filter="url(#aq)" id="svg_39"/>
    <path d="m-29.467846,-1346.263472c8.6606,-4.3303 56.294,-17.321 77.946,-66.811c1.2372,-1.8558 3.7117,6.1862 16.084,6.1862c-12.991,22.889 -31.549,58.769 -79.183,72.997c-8.6606,-3.0931 -7.4234,-5.5676 -14.847,-12.372l0,-0.0002z" fill="url(#n)" filter="url(#b)" id="svg_40"/>
    <path d="m-1.917846,-1329.043472c8.6606,-4.3303 54.982,-23.445 76.633,-72.935c1.2372,-1.8558 5.4614,2.6867 17.834,2.6867c-12.116,28.138 -36.799,71.017 -78.308,77.371c-8.6606,-3.0931 -8.7357,-0.31841 -16.159,-7.1232l0,0.0005z" fill="url(#m)" filter="url(#b)" id="svg_41"/>
    <path d="m36.372154,-1316.223472c8.6606,-4.3303 60.231,-33.506 65.698,-83.433c5.1741,-0.98099 17.272,-1.2501 18.271,-1.6875c-7.7418,36.449 -27.175,73.641 -63.873,92.244c-8.6606,-3.0931 -13.985,-3.3804 -20.096,-7.1232l0,-0.0003z" fill="url(#l)" filter="url(#b)" id="svg_42"/>
    <path d="m-57.897846,-1364.863472c8.6606,-4.3303 57.606,-16.446 79.258,-65.936c1.2372,-1.8558 11.585,7.9359 14.772,7.4984c-12.991,22.889 -31.549,56.581 -79.183,70.81c-8.6606,-3.0931 -7.4234,-5.5676 -14.847,-12.372l0,-0.0004z" fill="url(#k)" filter="url(#b)" id="svg_43"/>
    <path d="m-78.887846,-1383.693472c8.6606,-4.3303 57.606,-16.446 79.258,-65.936c-1.3873,0.76872 7.6486,11.873 10.835,11.435c-12.991,22.889 -27.613,52.645 -75.246,66.873c-8.6606,-3.0931 -7.4234,-5.5676 -14.847,-12.372z" fill="url(#j)" filter="url(#b)" id="svg_44"/>
    <path d="m-95.297846,-1405.243472c6.9109,-1.2683 52.795,-8.5727 76.196,-65.498c2.3153,4.0028 7.2111,10.295 11.325,13.879c-13.428,19.389 -32.999,50.767 -77.624,63.886c-1.8559,-1.2372 -5.8769,-5.4614 -9.8979,-12.266l0.0009,-0.001z" fill="url(#i)" filter="url(#b)" id="svg_45"/>
    <path d="m-109.107846,-1429.763472c18.355,-8.0731 53.723,-13.522 76.196,-63.024c2.3153,4.0028 5.046,10.604 9.1603,14.188c-13.428,19.389 -30.834,48.602 -76.386,63.886c-1.8559,-1.2372 -4.9489,-8.2452 -8.97,-15.05l-0.0003,0z" fill="url(#h)" filter="url(#b)" id="svg_46"/>
    <path d="m-121.788846,-1462.853472c35.367,-4.3614 46.299,-39.504 78.67,-61.787c2.3153,4.0028 -0.21226,13.697 3.902,17.281c-27.966,16.296 -30.525,44.581 -76.077,59.865c-1.8559,-1.2372 -2.4745,-8.5545 -6.4955,-15.359l0.0005,0z" fill="url(#g)" filter="url(#b)" id="svg_47"/>
    <path d="m-123.335846,-1482.653472c6.6016,-26.632 20.317,-43.834 81.454,-53.126c2.3153,4.0028 -0.52156,11.842 -0.11899,12.332c-29.512,3.3054 -64.858,19.527 -79.17,54.297c-1.8559,-1.2372 -3.4024,-4.2242 -2.1652,-13.503l0.00019,0z" fill="url(#f)" filter="url(#b)" id="svg_48"/>
    <path d="m120.402154,-1391.723472c-3.5298,0.80675 -10.648,3.8494 -12.656,5.0938c0.24783,14.459 3.1972,46.602 13.531,74.406c5.4765,-0.21154 15.156,-7.4688 15.156,-7.4688s-1.7194,-44.815 -16.031,-72.031z" fill="url(#e)" filter="url(#c)" id="svg_49"/>
   </g>
  </g>
 </g>
</svg>